<?xml version="1.0" standalone="no"?>
<!DOCTYPE svg PUBLIC "-//W3C//DTD SVG 20010904//EN"
 "http://www.w3.org/TR/2001/REC-SVG-20010904/DTD/svg10.dtd">
<svg version="1.0" xmlns="http://www.w3.org/2000/svg"
 width="88.000000pt" height="88.000000pt" viewBox="0 0 88.000000 88.000000"
 preserveAspectRatio="xMidYMid meet">

<g transform="translate(0.000000,88.000000) scale(0.100000,-0.100000)"
fill="#000000" stroke="none">
<path d="M367 870 c-131 -23 -261 -123 -320 -247 -30 -64 -32 -74 -32 -183 0
-108 2 -119 31 -180 45 -94 111 -163 197 -204 124 -60 117 -62 117 42 0 49 3
117 6 151 l7 61 -57 0 -56 0 0 70 0 70 55 0 55 0 0 73 c0 74 19 124 59 154 28
21 113 35 156 26 l40 -9 0 -54 0 -55 -45 -3 c-56 -4 -70 -21 -70 -84 l0 -48
56 0 57 0 -7 -62 c-4 -34 -10 -66 -12 -70 -3 -4 -25 -8 -50 -8 l-44 0 0 -150
c0 -82 4 -150 8 -150 5 0 34 9 64 19 245 84 363 359 254 596 -28 61 -102 145
-160 182 -84 54 -213 80 -309 63z"/>
</g>
</svg>
